<?xml version="1.0" encoding="utf-8"?>
<!-- Generator: Adobe Illustrator 23.0.3, SVG Export Plug-In . SVG Version: 6.00 Build 0)  -->
<svg version="1.1" id="Layer_1" xmlns="http://www.w3.org/2000/svg" xmlns:xlink="http://www.w3.org/1999/xlink" x="0px" y="0px"
	 viewBox="0 0 137 230" style="enable-background:new 0 0 137 230;" xml:space="preserve">
<style type="text/css">
	.st0{display:none;}
	.st1{display:inline;fill:#F8BD7A;}
</style>
<g class="st0">
	<path class="st1" d="M927.6,113.5l-2.3-0.3c0.2,1.2,0.3,2.5,0.5,3.8C926.3,115.8,927,114.6,927.6,113.5z"/>
	<path class="st1" d="M58,119L15.9,225.8L133.4,79.4l-51.8,1.2l43.7-72.5c0-0.1,0-0.1,0.1-0.2c0-0.1,0-0.2,0.1-0.3s0-0.1,0.1-0.1
		c0.1-0.2,0.1-0.4,0.2-0.6c0-0.1,0.1-0.3,0.2-0.4c-0.1-0.2,0-0.4,0.1-0.5s0.2-0.2,0.3-0.2V5.7c0-0.1,0-0.1,0-0.2s0.1-0.3,0.2-0.4V5
		c0-0.1,0.1-0.1,0.1-0.1V4.8c0-0.2,0.1-0.4,0.2-0.6L67.3,5.6l-54,114.7L58,119z"/>
</g>
<image style="overflow:visible;" width="2055" height="3688" xlink:href="D:\ETH\GRAFICĂ_2019-2020\GRAFICA_ETH\super voluntar.png"  transform="matrix(6.013666e-02 0 0 6.013666e-02 6.7096 5.108)">
</image>
</svg>
