<?xml version="1.0" encoding="utf-8"?>
<!-- Generator: Adobe Illustrator 23.0.3, SVG Export Plug-In . SVG Version: 6.00 Build 0)  -->
<svg version="1.1" id="Layer_1" xmlns="http://www.w3.org/2000/svg" xmlns:xlink="http://www.w3.org/1999/xlink" x="0px" y="0px"
	 viewBox="0 0 1001.9 238.2" style="enable-background:new 0 0 1001.9 238.2;" xml:space="preserve">
<style type="text/css">
	.st0{display:none;}
	.st1{display:inline;}
	.st2{fill:#FF7F66;}
	.st3{opacity:0.32;fill:#2A344F;enable-background:new    ;}
	.st4{opacity:0.16;}
	.st5{fill:#2A344F;}
	.st6{fill:#FFFFFF;}
</style>
<g id="Page-1" class="st0">
	<g id="logo-text" class="st1">
		<g id="Group">
			<g id="Path">
				<path class="st2" d="M199.2,7l-81.9,20c-1.6,0.4-3.2,0.1-4.6-0.8L74,0.9c-1.4-0.9-3.2-1.2-4.8-0.7l-67,19.7
					C0.9,20.2,0,21.3,0,22.6v40l69.2-20.3c1.6-0.5,3.4-0.2,4.8,0.7l38.7,25.2c1.3,0.9,3,1.2,4.6,0.8L201,48.6V8.3
					c0-0.8-0.7-1.4-1.4-1.4L199.2,7z"/>
				<path class="st2" d="M149.8,103.5l-32.5,7.8c-1.6,0.4-3.2,0.1-4.6-0.8L74,85.2c-0.3-0.2-0.7-0.3-1-0.2c-0.4,0.1-0.7,0.3-0.9,0.6
					c-0.2,0.2-0.3,0.5-0.3,0.7v38c0,0.9,0.5,1.8,1.3,2.3l39.7,26c1.4,0.9,3,1.1,4.6,0.7l34.4-8.2c11.4-2.7,19.5-12.9,19.5-24.7v-0.8
					c-0.2-9.5-8-17-17.5-16.9C152.5,102.9,151.1,103.1,149.8,103.5L149.8,103.5z"/>
				<path class="st2" d="M149.8,187.7l-32.5,7.8c-1.6,0.4-3.2,0.1-4.6-0.8L74,169.5c-0.3-0.2-0.7-0.3-1.1-0.2
					c-0.4,0.1-0.7,0.3-0.9,0.6c-0.2,0.2-0.3,0.5-0.3,0.8v38c0,0.9,0.5,1.8,1.3,2.3l39.7,26c1.3,0.9,3,1.2,4.6,0.8l34.4-8.3
					c11.4-2.7,19.5-12.9,19.5-24.7V204c-0.2-9.4-7.9-17-17.4-16.8C152.4,187.2,151.1,187.4,149.8,187.7L149.8,187.7z"/>
			</g>
			<path id="Shape" class="st3" d="M114,154v-41.8c0.8,0.2,1.6,0.2,2.5,0l14-3.7l8.2,40l-22.3,5.4C115.6,154.2,114.8,154.2,114,154z
				 M146.8,188.6l-30.3,7.4c-0.8,0.2-1.6,0.2-2.5,0v42.1c0.8,0.2,1.6,0.2,2.5,0l38.5-9.4L146.8,188.6z M114,70.2
				c0.8,0.2,1.6,0.2,2.5,0l5.8-1.4L114,28.2V70.2z"/>
			<g id="Path-2" class="st4">
				<path class="st5" d="M71.3,42.4c0.8,0.1,1.6,0.4,2.2,0.9l38.9,25.3c0.6,0.4,1.4,0.7,2.1,0.8V27.2c-0.8-0.1-1.5-0.4-2.1-0.8
					L73.5,1.1c-0.7-0.4-1.4-0.7-2.2-0.9V42.4z"/>
				<path class="st5" d="M114.5,196c-0.8-0.1-1.5-0.4-2.1-0.9l-38.9-25.3c-0.7-0.4-1.6-0.3-2,0.4c-0.2,0.2-0.2,0.5-0.2,0.7v38
					c0,0.9,0.5,1.8,1.3,2.3l39.8,26c0.7,0.4,1.4,0.7,2.1,0.8L114.5,196z"/>
				<path class="st5" d="M73.5,85.5c-0.7-0.4-1.6-0.3-2,0.4c-0.1,0.2-0.2,0.5-0.2,0.7v38.1c0,0.9,0.5,1.8,1.3,2.3l39.8,26
					c0.6,0.4,1.4,0.7,2.1,0.8v-42.1c-0.8-0.1-1.5-0.4-2.1-0.8L73.5,85.5z"/>
			</g>
		</g>
		<g id="Themesberg">
			<g>
				<path class="st6" d="M290.1,161.2V86.6h-28.5V70.2h77.1v16.4h-28.5v74.6H290.1z"/>
				<path class="st6" d="M404.4,103c3.7,4.4,5.5,11.1,5.5,20.1v38.2h-19.5v-37.3c0-4.3-0.8-7.4-2.4-9.4c-1.6-2-4.1-3-7.4-3
					c-3.6-0.2-7.2,1.3-9.7,3.9c-2.5,2.6-3.7,6-3.7,10.3v35.5h-19.5V70.2h19.5v36c2.1-3.2,5.1-5.8,8.6-7.4c3.6-1.7,7.6-2.6,11.7-2.5
					C395,96.3,400.6,98.5,404.4,103z"/>
				<path class="st6" d="M481.5,133.2h-41.3c0.6,5.1,2.3,8.7,5,11s6.6,3.4,11.5,3.4c3.3,0,6.6-0.6,9.7-1.6c3.2-1,6.2-2.6,8.8-4.6
					l5.2,13c-3.4,2.6-7.2,4.6-11.3,5.8c-4.3,1.3-8.8,2-13.4,2c-10.7,0-19.1-2.9-25.2-8.8c-6.1-5.9-9.2-13.9-9.2-24.1
					c-0.1-6,1.3-11.9,4-17.2c2.5-4.9,6.4-8.9,11.1-11.7c4.9-2.8,10.5-4.3,16.1-4.2c8.9,0,15.9,2.9,21.1,8.7
					c5.2,5.8,7.8,13.6,7.8,23.5V133.2z M444.3,113.3c-2.2,2.4-3.5,5.8-4.1,10.3h24.9c-0.3-4.6-1.4-8-3.4-10.3
					c-2-2.3-4.9-3.5-8.6-3.5C449.8,109.6,446.6,110.9,444.3,113.3L444.3,113.3z"/>
				<path class="st6" d="M587.4,102.9c3.5,4.4,5.3,11.1,5.3,20.1v38.2h-19.5v-37.5c0-4.3-0.7-7.4-2-9.3s-3.6-2.8-6.8-2.8
					c-3.3-0.2-6.5,1.3-8.7,3.9c-2.1,2.6-3.1,6.2-3.1,10.8v35h-19.5v-37.6c0-4.3-0.7-7.4-2-9.3s-3.6-2.8-6.8-2.8
					c-3.3-0.2-6.5,1.3-8.7,3.9c-2.1,2.6-3.1,6.2-3.1,10.8v35h-19.5V97.9h19v8.5c1.9-3.2,4.6-5.8,7.9-7.5c3.5-1.8,7.5-2.7,11.4-2.6
					c9.4,0,15.7,3.9,18.8,11.7c2-3.6,5-6.6,8.6-8.6c3.7-2.1,8-3.2,12.3-3.2C578.5,96.3,583.9,98.5,587.4,102.9z"/>
				<path class="st6" d="M664.4,133.2h-41.3c0.6,5.1,2.3,8.7,5,11s6.6,3.4,11.5,3.4c3.3,0,6.6-0.6,9.7-1.6c3.2-1,6.2-2.6,8.8-4.6
					l5.2,13c-3.4,2.6-7.2,4.6-11.3,5.8c-4.3,1.3-8.8,2-13.4,2c-10.7,0-19.1-2.9-25.2-8.8c-6.1-5.9-9.2-13.9-9.2-24.1
					c-0.1-6,1.3-11.9,4-17.2c2.5-4.9,6.4-8.9,11.1-11.7c4.9-2.8,10.5-4.3,16.1-4.2c8.9,0,15.9,2.9,21.1,8.7
					c5.2,5.8,7.8,13.6,7.8,23.5L664.4,133.2z M627.2,113.3c-2.2,2.4-3.5,5.8-4.1,10.3H648c-0.3-4.6-1.4-8-3.4-10.3
					c-2-2.3-4.9-3.5-8.6-3.5C632.7,109.6,629.5,110.9,627.2,113.3L627.2,113.3z"/>
				<path class="st6" d="M684.5,160.2c-4.5-1.2-8.8-3.1-12.6-5.7L677,141c3.5,2.3,7.3,4.2,11.3,5.4c4.1,1.3,8.3,1.9,12.5,1.9
					c2.4,0.1,4.8-0.4,7-1.5c1.5-0.8,2.5-2.3,2.5-4.1c0.1-1.4-0.6-2.8-1.7-3.6c-1.2-0.9-3.3-1.6-6.5-2.3l-10.3-2.3
					c-6.1-1.4-10.6-3.5-13.5-6.4c-2.9-2.9-4.3-6.8-4.3-11.8c-0.1-3.8,1.1-7.4,3.4-10.4c2.5-3.2,5.9-5.7,9.7-7.1
					c4.5-1.8,9.4-2.7,14.3-2.6c4.5,0,9,0.7,13.3,2.1c4.2,1.3,8.1,3.3,11.6,5.8l-5.2,12.9c-6.7-4.7-13.3-7-19.9-7
					c-2.5-0.1-4.9,0.4-7.1,1.5c-1.6,0.9-2.6,2.6-2.6,4.4c-0.1,1.3,0.5,2.5,1.5,3.2c1.7,1,3.5,1.8,5.4,2.2l10.7,2.4
					c6.5,1.5,11.2,3.7,14.1,6.6c3,3,4.5,7,4.5,12.1c0.2,5.7-2.6,11.2-7.3,14.4c-4.8,3.5-11.5,5.3-20,5.3
					C695.1,162.2,689.7,161.6,684.5,160.2z"/>
				<path class="st6" d="M792.8,100.3c4.3,2.8,7.7,6.7,9.9,11.4c2.5,5.4,3.7,11.3,3.5,17.2c0.1,6-1.1,11.9-3.5,17.4
					c-2.1,4.8-5.6,8.8-9.9,11.7c-4.3,2.8-9.4,4.2-14.5,4.2c-4.1,0.1-8.2-0.9-11.9-2.8c-3.4-1.7-6.2-4.4-8.1-7.7v9.4H739V70.2h19.5
					v36.1c1.9-3.2,4.7-5.8,8.1-7.4c3.6-1.8,7.6-2.7,11.7-2.7C783.4,96.2,788.4,97.6,792.8,100.3z M783.1,142.6
					c2.5-3.2,3.7-7.8,3.7-13.6s-1.2-10.2-3.7-13.2c-2.5-3-6-4.5-10.6-4.5s-8.1,1.6-10.6,4.7c-2.5,3.1-3.7,7.6-3.7,13.3
					c0,5.8,1.2,10.3,3.7,13.5c2.5,3.1,6,4.7,10.6,4.7S780.6,145.8,783.1,142.6z"/>
				<path class="st6" d="M875.1,133.2h-41.3c0.6,5.1,2.3,8.7,5,11s6.6,3.4,11.5,3.4c3.3,0,6.6-0.6,9.7-1.6c3.2-1,6.2-2.6,8.8-4.6
					l5.2,13c-3.4,2.6-7.2,4.6-11.3,5.8c-4.3,1.3-8.8,2-13.4,2c-10.7,0-19.1-2.9-25.2-8.8c-6.1-5.9-9.2-13.9-9.2-24
					c-0.1-6,1.3-11.8,4-17.1c2.5-4.8,6.3-8.9,11-11.7c4.9-2.8,10.5-4.3,16.1-4.2c8.9,0,15.9,2.9,21.1,8.7c5.2,5.8,7.8,13.6,7.8,23.5
					L875.1,133.2z M837.8,113.3c-2.2,2.4-3.5,5.8-4.1,10.3h24.9c-0.3-4.6-1.4-8-3.4-10.3s-4.9-3.5-8.6-3.5
					C843.4,109.6,840.1,110.9,837.8,113.3L837.8,113.3z"/>
				<path class="st6" d="M932.1,112.3l-11,1.2c-5.4,0.5-9.2,2-11.5,4.6c-2.2,2.5-3.3,5.9-3.3,10.1v33h-19.5V97.9h18.7v10.7
					c3.2-7.3,9.8-11.3,19.7-12l5.7-0.4L932.1,112.3z"/>
				<path class="st6" d="M1001.9,97.9v56.5c0,10.2-2.9,18-8.8,23.2c-5.8,5.2-14.5,7.9-25.9,7.9c-5.5,0-11-0.7-16.3-2.1
					c-4.8-1.2-9.5-3.2-13.7-5.8l5.2-13.4c8.2,4.5,16.3,6.7,24.4,6.7c10.7,0,16-5,16-15.1v-7c-1.9,3.3-4.7,6-8.1,7.7
					c-3.8,1.9-7.9,2.9-12.1,2.8c-5.1,0.1-10.2-1.2-14.6-3.9c-4.3-2.6-7.8-6.5-10-11c-2.5-5.2-3.7-10.8-3.6-16.6
					c-0.1-5.7,1.1-11.4,3.6-16.6c2.2-4.6,5.7-8.4,10-11.1c4.4-2.7,9.5-4,14.6-3.9c4.1-0.1,8.2,0.9,11.9,2.8c3.4,1.7,6.3,4.4,8.2,7.7
					v-8.9L1001.9,97.9z M978.7,140.2c2.5-2.9,3.8-7,3.8-12.3c0-5.2-1.3-9.4-3.8-12.3c-2.5-3-6.1-4.4-10.6-4.4
					c-4.6,0-8.1,1.5-10.7,4.4c-2.6,3-3.9,7.1-3.9,12.3c0,5.2,1.3,9.3,3.9,12.2c2.6,3,6.2,4.5,10.7,4.4
					C972.6,144.6,976.2,143.1,978.7,140.2z"/>
			</g>
		</g>
	</g>
</g>
<image style="overflow:visible;" width="1748" height="2480" xlink:href="D:\ETH\GRAFICĂ_2019-2020\GRAFICA_ETH\logo_ETH+USR\eth.png"  transform="matrix(0.16 0 0 0.16 12.5281 -75.2352)">
</image>
</svg>
