<?xml version="1.0" encoding="utf-8"?>
<!-- Generator: Adobe Illustrator 23.0.3, SVG Export Plug-In . SVG Version: 6.00 Build 0)  -->
<svg version="1.1" id="Layer_1" xmlns="http://www.w3.org/2000/svg" xmlns:xlink="http://www.w3.org/1999/xlink" x="0px" y="0px"
	 viewBox="0 0 54 64" style="enable-background:new 0 0 54 64;" xml:space="preserve">
<style type="text/css">
	.st0{display:none;}
	.st1{display:inline;}
	.st2{fill:#FF7F66;}
	.st3{opacity:0.32;fill:#2A344F;enable-background:new    ;}
	.st4{opacity:0.16;}
	.st5{fill:#2A344F;}
</style>
<title>logo</title>
<g class="st0">
	<g id="Layer_1-2" class="st1">
		<g id="Group_16">
			<g id="Group_15">
				<g id="Group_12">
					<path id="Path_35" class="st2" d="M53.5,1.9l-22,5.4c-0.4,0.1-0.9,0-1.2-0.2L19.9,0.2C19.5,0,19-0.1,18.6,0.1l-18,5.3
						C0.3,5.4,0,5.7,0,6.1v10.8l18.6-5.5c0.4-0.1,0.9-0.1,1.3,0.2l10.4,6.8c0.4,0.2,0.8,0.3,1.2,0.2L54,13.1V2.2
						C54,2,53.8,1.8,53.5,1.9L53.5,1.9z"/>
					<path id="Path_36" class="st2" d="M40.3,27.8l-8.7,2.1c-0.4,0.1-0.9,0-1.2-0.2l-10.4-6.8c-0.2-0.1-0.4-0.1-0.5,0.1c0,0,0,0,0,0
						c0,0.1-0.1,0.1-0.1,0.2v10.2c0,0.3,0.1,0.5,0.3,0.6l10.7,7c0.4,0.2,0.8,0.3,1.2,0.2l9.2-2.2c3.1-0.7,5.2-3.5,5.3-6.6v-0.2
						c0-2.5-2.1-4.6-4.7-4.6C41,27.7,40.6,27.8,40.3,27.8z"/>
					<path id="Path_37" class="st2" d="M40.3,50.5l-8.7,2.1c-0.4,0.1-0.9,0-1.2-0.2l-10.4-6.8c-0.2-0.1-0.4-0.1-0.5,0.1c0,0,0,0,0,0
						c0,0.1-0.1,0.1-0.1,0.2v10.2c0,0.3,0.1,0.5,0.3,0.6l10.7,7c0.4,0.2,0.8,0.3,1.2,0.2l9.2-2.2c3.1-0.7,5.2-3.5,5.3-6.6v-0.2
						c0-2.5-2.1-4.6-4.7-4.5C41,50.4,40.6,50.4,40.3,50.5z"/>
				</g>
				<path id="Path_38" class="st3" d="M30.9,41.3V30c0.2,0,0.4,0,0.7,0l3.8-1l2.2,10.8l-6,1.5C31.3,41.3,31.1,41.3,30.9,41.3z
					 M39.7,50.6l-8.2,2c-0.2,0-0.4,0-0.7,0V64c0.2,0,0.4,0,0.7,0l10.4-2.5L39.7,50.6z M30.9,18.6c0.2,0,0.4,0,0.7,0l1.6-0.4l-2.2-11
					V18.6z"/>
				<g id="Group_13" class="st4">
					<path id="Path_39" class="st5" d="M19.3,11.4c0.2,0,0.4,0.1,0.6,0.2l10.4,6.8c0.2,0.1,0.4,0.2,0.6,0.2V7.3
						c-0.2,0-0.4-0.1-0.6-0.2L19.9,0.2c-0.2-0.1-0.4-0.2-0.6-0.2L19.3,11.4z"/>
					<path id="Path_40" class="st5" d="M30.9,52.6c-0.2,0-0.4-0.1-0.6-0.2l-10.4-6.8c-0.2-0.1-0.4-0.1-0.5,0.1
						c0,0.1-0.1,0.1-0.1,0.2v10.2c0,0.3,0.1,0.5,0.3,0.6l10.7,7c0.2,0.1,0.4,0.2,0.6,0.2V52.6z"/>
					<path id="Path_41" class="st5" d="M19.9,22.9c-0.2-0.1-0.4-0.1-0.5,0.1c0,0.1-0.1,0.1-0.1,0.2v10.2c0,0.3,0.1,0.5,0.3,0.6
						l10.7,7c0.2,0.1,0.4,0.2,0.6,0.2V30c-0.2,0-0.4-0.1-0.6-0.2L19.9,22.9z"/>
				</g>
			</g>
		</g>
	</g>
</g>
<image style="overflow:visible;" width="1748" height="2480" xlink:href="D:\ETH\GRAFICĂ_2019-2020\GRAFICA_ETH\logo_ETH+USR\eth.png"  transform="matrix(3.086106e-02 0 0 3.086106e-02 2.743205e-02 -9.3524)">
</image>
</svg>
